<svg width="28" height="28" fill="none" xmlns="http://www.w3.org/2000/svg"><g clip-path="url('#clip0_406_496')" fill="#fff"><path d="M13.975 1.775 1.749 6.535l12.226 4.759 12.283-4.76-12.285-4.759h.002Zm.628-1.627 12.285 4.759a1.747 1.747 0 0 1 0 3.257l-12.285 4.76a1.747 1.747 0 0 1-1.264 0L1.115 8.16a1.747 1.747 0 0 1 0-3.255L13.341.145a1.746 1.746 0 0 1 1.262 0v.003Z"/><path d="M20.762 18.145h1.746v2.012c-2.896 2.286-5.8 2.573-8.715 2.573-2.917 0-5.833-.287-8.75-2.573V9.458l1.747.831v8.98c1.933 1.304 3.92 1.713 7.003 1.713 3.074 0 5.053-.407 6.969-1.709v-1.128Zm-6.969 2.838c3.074 0 5.053-.409 6.969-1.71v-1.128h1.746v2.012c-2.896 2.286-5.8 2.573-8.715 2.573-2.917 0-5.833-.287-8.75-2.573V9.483l1.747.803v8.984c1.933 1.303 3.92 1.712 7.003 1.712v.001Zm.753-12.989a.873.873 0 0 1 .604-1.638l7.557 2.784v3.324a.873.873 0 0 1-1.746 0v-2.107l-6.415-2.364v.001Z"/><path d="M21.626 19.764h.416l.015-.119a1.056 1.056 0 0 1-.223-.157 1.052 1.052 0 0 1-.224.157l.018.12h-.002Zm-.437 6.37h1.291l-.646-4.82-.646 4.82h.002Zm-.064-8.116h1.418a.7.7 0 0 1 .693.606l1.134 8.465a.698.698 0 0 1-.694.791h-3.685a.697.697 0 0 1-.693-.791l1.135-8.465a.699.699 0 0 1 .692-.606Z"/><path d="M21.834 18.983c-1.59 0-2.777-1.536-2.777-3.339 0-1.802 1.188-3.34 2.777-3.34 1.59 0 2.777 1.538 2.777 3.34 0 1.803-1.188 3.34-2.777 3.34Zm0-1.746c.513 0 1.03-.67 1.03-1.593 0-.92-.517-1.593-1.03-1.593-.514 0-1.03.673-1.03 1.593 0 .922.517 1.593 1.03 1.593Z"/></g><defs><clipPath id="clip0_406_496"><path fill="#fff" d="M0 0h28v28H0z"/></clipPath></defs></svg>