<svg width="36" height="33" fill="none" xmlns="http://www.w3.org/2000/svg"><g clip-path="url('#clip0_406_588')"><path opacity=".8" d="M35.478 9.796 19.933.534a3.766 3.766 0 0 0-3.867 0L.522 9.796a1.025 1.025 0 0 0 0 1.755l5.864 3.499V9.834A1.33 1.33 0 0 1 7.709 8.51H28.29a1.33 1.33 0 0 1 1.323 1.323v5.216l5.864-3.499a1.015 1.015 0 0 0 0-1.755Z" fill="#F4F7FE"/><path d="M20.353 22.86a4.57 4.57 0 0 1-4.694 0L0 13.537v18.027C0 32.35.649 33 1.437 33h33.125c.79 0 1.438-.649 1.438-1.438V13.537L20.353 22.86Z" fill="#F4F7FE"/><path d="m18 25.15.649 1.998h2.099l-1.692 1.234.649 1.997L18 29.145l-1.705 1.234.662-1.997-1.705-1.234h2.1L18 25.151Z" fill="#FF1313"/><path opacity=".6" d="M23.559 14.515H12.581a.961.961 0 0 1-.954-.954c0-.521.432-.954.954-.954h10.978c.521 0 .954.433.954.954a.961.961 0 0 1-.954.954ZM22.172 19.235h-8.217a.934.934 0 0 1-.929-.928v-.051c0-.51.42-.93.929-.93h8.217c.51 0 .929.42.929.93v.05a.918.918 0 0 1-.929.93Z" fill="#F4F7FE"/></g><defs><clipPath id="clip0_406_588"><path fill="#fff" d="M0 0h36v33H0z"/></clipPath></defs></svg>