<svg width="30" height="30" fill="none" xmlns="http://www.w3.org/2000/svg"><path d="M26.25 27.188a.938.938 0 0 0-.938-.985H5.953A2.344 2.344 0 0 1 3.61 23.86s0-2.343 2.344-2.343H26.25a1.875 1.875 0 0 0 1.875-1.875V3.75a1.875 1.875 0 0 0-1.875-1.875H5.625a3.75 3.75 0 0 0-3.75 3.75v18.75a3.75 3.75 0 0 0 3.75 3.75h19.688a.938.938 0 0 0 .937-.938Z" fill="#fff"/><path d="m15 4.031 1.734 3.516 3.891.562-2.813 2.766.657 3.844L15 12.89l-3.469 1.828.656-3.844-2.812-2.766 3.89-.562L15 4.03Zm7.5 13.782a.938.938 0 0 1-.938.937H8.438a.938.938 0 0 1 0-1.875h13.126a.938.938 0 0 1 .937.938Z" fill="#B51010"/></svg>